<svg width="30" height="30" viewBox="0 0 30 30" fill="none" xmlns="http://www.w3.org/2000/svg">
<g clip-path="url(#clip0_1_502)">
<path d="M15 0.46875C23.0273 0.46875 29.5312 6.97266 29.5312 15C29.5312 23.0273 23.0273 29.5312 15 29.5312C6.97266 29.5312 0.46875 23.0273 0.46875 15C0.46875 6.97266 6.97266 0.46875 15 0.46875ZM8.20312 17.5781H15V21.7324C15 22.3594 15.7617 22.6758 16.2012 22.2305L22.8984 15.498C23.1738 15.2227 23.1738 14.7832 22.8984 14.5078L16.2012 7.76953C15.7559 7.32422 15 7.64063 15 8.26758V12.4219H8.20312C7.81641 12.4219 7.5 12.7383 7.5 13.125V16.875C7.5 17.2617 7.81641 17.5781 8.20312 17.5781Z" fill="white"/>
</g>
<defs>
<clipPath id="clip0_1_502">
<rect width="30" height="30" fill="white"/>
</clipPath>
</defs>
</svg>
