<svg width="30" height="30" viewBox="0 0 30 30" fill="none" xmlns="http://www.w3.org/2000/svg">
<path d="M14.5312 0.46875C6.50391 0.46875 0 6.97266 0 15C0 23.0273 6.50391 29.5312 14.5312 29.5312C22.5586 29.5312 29.0625 23.0273 29.0625 15C29.0625 6.97266 22.5586 0.46875 14.5312 0.46875ZM21.3281 17.5781H14.5312V21.7324C14.5312 22.3594 13.7695 22.6758 13.3301 22.2305L6.63281 15.498C6.35742 15.2227 6.35742 14.7832 6.63281 14.5078L13.3301 7.76953C13.7754 7.32422 14.5312 7.64063 14.5312 8.26758V12.4219H21.3281C21.7148 12.4219 22.0312 12.7383 22.0312 13.125V16.875C22.0312 17.2617 21.7148 17.5781 21.3281 17.5781Z" fill="white"/>
</svg>
